v 11.305434 0.000006 -38.234230
v 41.411457 0.000008 -50.048264
v 41.411457 37.402729 -52.735992
v 11.305438 40.129360 -47.636883
v 18.683462 0.000020 -124.620430
v -9.184886 0.000020 -123.615364
v -9.184884 40.129372 -119.867310
v 18.683462 40.129372 -120.872360
v -36.248291 40.129360 -55.609318
v -46.055233 0.000009 -52.976318
v -57.743038 20.235622 -109.841728
v -62.844391 0.000018 -109.841728
v -26.515188 20.235626 -127.677284
v -67.995514 13.931513 -137.476364
v -69.907631 0.000022 -137.476364
v -67.626480 13.931514 -163.164856
v -75.301506 4.071021 -152.531464
v -75.362320 4.071022 -144.094894
v -75.362320 0.000023 -144.094894
v -29.160931 13.931513 -145.761871
v 46.551811 0.000020 -125.625465
v 46.551811 40.129372 -121.877403
v 76.725479 11.169972 -135.379593
v 80.113449 0.000022 -136.626083
v -67.626472 0.000028 -169.385712
v -75.301506 0.000025 -152.531464
v -31.142700 13.931514 -162.351288
v -45.337902 13.931515 -170.073120
v -21.848536 0.000021 -127.677284
v -24.494284 0.000024 -145.761871
v -40.681408 0.000029 -176.548416
v 0.133969 30.596121 -38.796642
v 1.293951 16.313713 -35.657623
v 76.725479 11.169970 -117.984528
v 80.113449 0.000019 -119.231018
v -26.339956 0.000027 -168.582397
v -12.553104 16.313713 -30.620268
v -13.713085 30.596121 -33.759289
v -0.168625 21.262794 -29.224886
v -7.306846 21.262794 -26.628109
v -7.904822 28.625441 -28.246284
v -0.766601 28.625443 -30.843067
v 0.928681 29.353041 -22.836405
v 1.346319 24.210835 -21.706240
v -3.639143 24.210835 -19.892603
v -4.056781 29.353041 -21.022768
v 11.305438 -40.129345 -47.636898
v 41.411457 -37.402714 -52.736008
v 18.683462 -40.129333 -120.872375
v -9.184884 -40.129333 -119.867325
v -36.248291 -40.129345 -55.609333
v -57.743038 -20.235588 -109.841728
v -26.515188 -20.235584 -127.677284
v -67.995514 -13.931469 -137.476364
v -75.362320 -4.070975 -144.094894
v -75.301506 -4.070971 -152.531464
v -67.626480 -13.931460 -163.164856
v -29.160931 -13.931465 -145.761871
v 76.725479 -11.169929 -135.379593
v 46.551811 -40.129333 -121.877419
v -45.337902 -13.931459 -170.073120
v -31.142700 -13.931460 -162.351288
v 1.293951 -16.313702 -35.657631
v 0.133969 -30.596109 -38.796650
v 76.725479 -11.169931 -117.984528
v -12.553104 -16.313702 -30.620272
v -13.713085 -30.596109 -33.759296
v -7.306846 -21.262787 -26.628117
v -0.168625 -21.262787 -29.224894
v -0.766601 -28.625431 -30.843075
v -7.904822 -28.625433 -28.246292
v 1.346319 -24.210827 -21.706247
v 0.928681 -29.353033 -22.836416
v -3.639143 -24.210827 -19.892611
v -4.056781 -29.353033 -21.022779
v -61.562210 -1.826129 -177.932617
v -52.283920 -1.906771 -179.151260
v -54.175125 -2.562902 -169.836258
v -60.911396 -2.562902 -168.045593
v -79.081085 -1.745491 -161.542099
v -74.717590 -1.745490 -164.810150
v -71.485168 -2.562905 -157.827774
v -73.403923 -2.562906 -153.614212
v -80.596153 -1.745492 -155.904861
v -80.596153 1.745542 -155.904861
v -84.024582 0.928130 -162.409088
v -84.024582 -0.928077 -162.409088
v -73.823639 -1.760736 -170.867691
v -69.452026 -1.814312 -173.856094
v -67.647652 -2.562902 -166.254898
v -69.566414 -2.562903 -162.041351
v -73.823639 1.730297 -170.867691
v -69.566414 2.562956 -162.041351
v -67.647652 2.562957 -166.254898
v -69.452026 1.676721 -173.856094
v -46.370720 -1.745487 -180.969254
v -37.526730 -1.745487 -179.929382
v -40.702591 -2.562901 -173.417618
v -47.438858 -2.562902 -171.626938
v -46.370720 1.745546 -180.969254
v -47.438858 2.562958 -171.626938
v -40.702591 2.562958 -173.417618
v -37.526730 1.745546 -179.929382
v -79.081085 1.745543 -161.542099
v -73.403923 2.562956 -153.614212
v -71.485168 2.562956 -157.827774
v -74.717590 1.745544 -164.810150
v -84.047440 0.928131 -169.469971
v -84.047440 -0.928076 -169.469971
v -62.213028 0.766849 -187.819656
v -62.213028 -1.089355 -187.819656
v -70.739212 -0.928073 -181.877258
v -70.739212 0.928133 -181.877258
v -78.080849 0.897638 -179.694046
v -78.080849 -0.958568 -179.694046
v -79.441689 -0.851417 -173.192459
v -79.441689 1.004790 -173.192459
v -45.302586 0.928134 -190.311569
v -45.302586 -0.928071 -190.311569
v -52.850403 -0.928071 -188.886230
v -52.850403 0.928134 -188.886230
v -61.562210 1.664903 -177.932617
v -60.911396 2.562957 -168.045593
v -54.175125 2.562957 -169.836258
v -52.283920 1.584261 -179.151260
v -37.754772 -0.928072 -186.441132
v -37.754772 0.928133 -186.441132
v -53.686844 -1.250639 -188.466248
v -53.686844 0.605565 -188.466248
v -53.512760 1.745546 -179.361237
v -53.512760 -1.745486 -179.361237
v -70.840500 1.745545 -174.066086
v -70.840500 -1.745488 -174.066086
v -72.691788 -1.065721 -180.017578
v -72.691788 0.790484 -180.017578
v -76.597191 1.783873 -165.510117
v -76.597191 -1.707161 -165.510117
v -80.505836 -0.928075 -171.792511
v -80.505836 0.928132 -171.792511
v -75.322685 2.562955 -149.400650
v -75.322685 -2.562906 -149.400650
v -67.458847 6.059521 -124.786469
v -62.311676 1.349456 -142.735336
v -62.506489 3.983959 -143.384247
v -67.360008 10.024934 -125.536507
v -79.002930 5.315887 -127.502678
v -78.904083 9.281298 -128.252731
v -74.050575 3.240325 -146.100494
v -73.855766 0.605825 -145.451538
v -68.083725 0.977641 -144.093445
v -74.365013 6.607532 -122.758614
v -68.278534 3.612143 -144.742371
v -74.266182 10.572943 -123.508667
v -67.458847 -6.059480 -124.786469
v -67.360008 -10.024894 -125.536507
v -62.506489 -3.983913 -143.384247
v -62.311676 -1.349409 -142.735336
v -79.002930 -5.315845 -127.502678
v -73.855766 -0.605777 -145.451538
v -74.050575 -3.240277 -146.100494
v -78.904083 -9.281256 -128.252731
v -68.083725 -0.977594 -144.093445
v -74.365013 -6.607492 -122.758614
v -68.278534 -3.612095 -144.742371
v -74.266182 -10.572903 -123.508667
v -85.103455 0.000024 -147.545120
v -85.103455 3.048767 -147.545120
v -87.201706 0.000023 -138.606155
v -82.824944 3.048768 -141.652008
v -82.824944 0.000023 -141.652008
v -11.950723 31.153399 -5.949986
v -11.202639 36.269302 -5.949985
v -6.472661 36.075840 -5.949985
v 0.170735 24.696032 -1.292081
v 0.170735 24.696032 -3.575163
v 1.137729 25.811411 -2.938065
v 1.137729 25.811411 -1.929180
v -7.220747 30.959932 -5.949986
v -11.950723 31.153397 -1.292080
v -6.472661 36.075840 -1.292080
v -11.202639 36.269302 -1.292079
v -11.653757 38.052593 -4.521613
v -11.653757 38.052593 -2.251994
v -15.400565 46.789959 -1.292078
v -15.400565 46.789959 -4.974148
v -13.163202 36.793575 -2.251995
v -13.163202 36.793575 -4.428890
v -22.134680 40.600124 -4.150466
v -22.134680 40.600124 -1.292079
v -3.190092 29.737335 -5.303678
v -6.827491 28.934315 -5.303678
v -14.949672 47.809628 -2.252202
v -14.949672 47.809628 -4.014025
v -7.513233 38.123566 -5.521562
v -12.448047 49.290428 -4.974148
v -7.513233 38.123566 -1.292079
v -12.448047 49.290428 -1.292077
v -23.226124 39.773651 -3.326556
v -23.226124 39.773651 -2.115991
v -14.056709 32.131172 -5.348775
v -24.626884 37.013199 -4.150466
v -14.056709 32.131172 -1.292080
v -24.626884 37.013199 -1.292079
v -6.827491 28.934315 -1.292081
v -2.775038 32.575745 -1.292080
v 3.636019 28.693062 -1.292081
v 2.669026 27.577684 -1.929179
v -2.775038 32.575745 -5.303678
v 3.636019 28.693062 -3.575163
v 2.669026 27.577684 -2.938065
v -24.281607 38.254539 -2.115991
v -24.281607 38.254539 -3.326556
v -13.536930 49.006069 -4.014025
v -13.536930 49.006069 -2.252202
v -85.103455 -3.048719 -147.545120
v -82.824944 -3.048722 -141.652008
v -11.202639 -36.269302 -5.949996
v -11.950723 -31.153395 -5.949996
v -6.472661 -36.075840 -5.949996
v 0.170735 -24.696032 -1.292089
v 1.137729 -25.811411 -1.929188
v 1.137729 -25.811411 -2.938074
v 0.170735 -24.696032 -3.575171
v -7.220747 -30.959929 -5.949996
v -11.950723 -31.153397 -1.292091
v -11.202639 -36.269302 -1.292091
v -6.472661 -36.075840 -1.292091
v -11.653757 -38.052593 -4.521625
v -15.400565 -46.789959 -4.974164
v -15.400565 -46.789959 -1.292093
v -11.653757 -38.052593 -2.252007
v -13.163202 -36.793575 -2.252007
v -22.134680 -40.600124 -1.292092
v -22.134680 -40.600124 -4.150479
v -13.163202 -36.793575 -4.428903
v -6.827491 -28.934315 -5.303688
v -3.190092 -29.737335 -5.303688
v -14.949672 -47.809628 -4.014040
v -14.949672 -47.809628 -2.252218
v -7.513233 -38.123566 -5.521574
v -12.448047 -49.290428 -4.974164
v -7.513233 -38.123566 -1.292092
v -12.448047 -49.290428 -1.292093
v -23.226124 -39.773651 -2.116004
v -23.226124 -39.773651 -3.326569
v -24.626884 -37.013199 -4.150479
v -14.056709 -32.131172 -5.348786
v -14.056709 -32.131172 -1.292091
v -24.626884 -37.013199 -1.292091
v -2.775038 -32.575745 -1.292091
v -6.827491 -28.934315 -1.292090
v 3.636019 -28.693062 -1.292090
v 2.669026 -27.577684 -1.929188
v -2.775038 -32.575745 -5.303688
v 3.636019 -28.693062 -3.575172
v 2.669026 -27.577684 -2.938074
v -24.281607 -38.254539 -2.116004
v -24.281607 -38.254539 -3.326569
v -13.536930 -49.006069 -4.014041
v -13.536930 -49.006069 -2.252218
v -64.196144 14.859526 -155.478958
v -65.079018 14.859525 -153.347488
v -62.064678 14.859525 -153.347488
v -59.050323 14.859525 -153.347488
v -59.933216 14.859526 -155.478958
v -62.064678 14.859525 -150.333145
v -59.933216 14.859525 -151.216019
v -64.196144 14.859525 -151.216019
v -62.064678 14.859526 -156.361832
v -64.196144 9.931511 -155.478958
v -65.079018 9.931510 -153.347488
v -59.050323 9.931510 -153.347488
v -59.933216 9.931511 -155.478958
v -62.064678 9.931510 -150.333145
v -59.933216 9.931510 -151.216019
v -64.196144 9.931510 -151.216019
v -62.064678 9.931511 -156.361832
v -64.196144 -14.859474 -155.478958
v -62.064678 -14.859475 -153.347488
v -65.079018 -14.859475 -153.347488
v -59.050323 -14.859475 -153.347488
v -59.933216 -14.859474 -155.478958
v -62.064678 -14.859475 -150.333145
v -59.933216 -14.859475 -151.216019
v -64.196144 -14.859475 -151.216019
v -62.064678 -14.859474 -156.361832
v -65.079018 -9.931460 -153.347488
v -64.196144 -9.931459 -155.478958
v -59.933216 -9.931459 -155.478958
v -59.050323 -9.931460 -153.347488
v -59.933216 -9.931460 -151.216019
v -62.064678 -9.931460 -150.333145
v -64.196144 -9.931460 -151.216019
v -62.064678 -9.931459 -156.361832
v 4.474904 26.320278 -1.833643
v 3.037879 24.480375 -1.833643
v 4.938028 23.149340 -1.424683
v 6.280783 25.062872 -1.424683
v -24.736126 40.612106 -2.026810
v -24.736126 40.612106 -2.886729
v -26.246126 41.450565 -2.120773
v -26.246126 41.450565 -1.611494
v -26.947607 39.738941 -2.120773
v -26.947607 39.738941 -1.611495
v -25.614607 38.996738 -2.026810
v -25.614607 38.996738 -2.886730
v -14.188978 50.362984 -2.078938
v -14.188978 50.362984 -3.330444
v -14.841025 51.719894 -2.404812
v -14.841025 51.719894 -1.663623
v -16.559542 51.031418 -2.404812
v -16.559542 51.031418 -1.663623
v -15.754607 49.420525 -2.078938
v -15.754607 49.420525 -3.330444
v 4.938028 23.149340 -2.024609
v 6.280783 25.062872 -2.024609
v 3.037879 24.480375 -2.842528
v 4.474904 26.320278 -2.842528
v 4.474904 -26.320278 -1.833652
v 6.280783 -25.062872 -1.424691
v 4.938028 -23.149340 -1.424691
v 3.037879 -24.480375 -1.833651
v -24.736126 -40.612106 -2.026823
v -26.246126 -41.450565 -1.611508
v -26.246126 -41.450565 -2.120786
v -24.736126 -40.612106 -2.886743
v -26.947607 -39.738941 -1.611508
v -26.947607 -39.738941 -2.120786
v -25.614607 -38.996738 -2.026823
v -25.614607 -38.996738 -2.886743
v -14.188978 -50.362984 -2.078954
v -14.841025 -51.719894 -1.663640
v -14.841025 -51.719894 -2.404829
v -14.188978 -50.362984 -3.330460
v -16.559542 -51.031418 -1.663640
v -16.559542 -51.031418 -2.404829
v -15.754607 -49.420525 -2.078954
v -15.754607 -49.420525 -3.330460
v 4.938028 -23.149340 -2.024616
v 6.280783 -25.062872 -2.024617
v 3.037879 -24.480375 -2.842536
v 4.474904 -26.320278 -2.842536
f 26 167 17
f 167 166 168
f 19 169 170
f 18 167 169
f 170 169 168
f 169 167 168
f 46 171 172
f 46 173 43
f 175 177 174
f 43 178 44
f 45 178 171
f 179 180 181
f 183 185 182
f 186 188 189
f 178 191 171
f 185 192 193
f 182 195 194
f 196 195 197
f 183 197 184
f 188 199 189
f 187 201 188
f 186 203 202
f 202 201 200
f 204 180 179
f 206 177 207
f 180 208 173
f 179 191 204
f 178 208 190
f 191 190 175
f 209 190 208
f 205 209 208
f 209 176 175
f 175 190 209
f 204 175 174
f 181 196 183
f 180 194 196
f 172 194 173
f 181 182 172
f 179 200 171
f 181 202 179
f 172 200 187
f 181 187 186
f 203 199 211
f 201 211 212
f 201 198 188
f 185 213 195
f 195 214 197
f 184 214 192
f 174 205 204
f 209 207 210
f 215 26 56
f 215 168 166
f 19 216 55
f 55 215 56
f 170 168 216
f 216 168 215
f 75 218 74
f 219 75 73
f 221 223 220
f 224 73 72
f 74 224 72
f 225 226 227
f 229 231 228
f 232 234 235
f 236 224 218
f 229 239 230
f 241 228 240
f 242 241 240
f 231 243 242
f 244 234 233
f 235 246 247
f 249 232 248
f 246 248 247
f 227 251 225
f 252 221 220
f 254 227 219
f 225 236 218
f 224 254 219
f 236 223 237
f 255 254 237
f 255 250 254
f 222 255 223
f 223 255 237
f 251 223 236
f 226 242 227
f 227 240 219
f 240 217 219
f 228 226 217
f 247 225 218
f 248 226 225
f 217 247 218
f 226 235 217
f 249 244 233
f 246 257 249
f 245 246 234
f 259 229 241
f 260 241 243
f 230 260 243
f 250 220 251
f 255 253 252
f 26 166 167
f 19 18 169
f 18 17 167
f 46 45 171
f 46 172 173
f 175 176 177
f 43 173 178
f 45 44 178
f 183 184 185
f 186 187 188
f 178 190 191
f 185 184 192
f 182 185 195
f 196 194 195
f 183 196 197
f 188 198 199
f 187 200 201
f 186 189 203
f 202 203 201
f 204 205 180
f 206 174 177
f 180 205 208
f 179 171 191
f 178 173 208
f 205 206 209
f 209 210 176
f 204 191 175
f 181 180 196
f 180 173 194
f 172 182 194
f 181 183 182
f 179 202 200
f 181 186 202
f 172 171 200
f 181 172 187
f 203 189 199
f 201 203 211
f 201 212 198
f 185 193 213
f 195 213 214
f 184 197 214
f 174 206 205
f 209 206 207
f 215 166 26
f 19 170 216
f 55 216 215
f 75 217 218
f 219 217 75
f 221 222 223
f 224 219 73
f 74 218 224
f 229 230 231
f 232 233 234
f 236 237 224
f 229 238 239
f 241 229 228
f 242 243 241
f 231 230 243
f 244 245 234
f 235 234 246
f 249 233 232
f 246 249 248
f 227 250 251
f 252 253 221
f 254 250 227
f 225 251 236
f 224 237 254
f 255 252 250
f 222 256 255
f 251 220 223
f 226 231 242
f 227 242 240
f 240 228 217
f 228 231 226
f 247 248 225
f 248 232 226
f 217 235 247
f 226 232 235
f 249 257 244
f 246 258 257
f 245 258 246
f 259 238 229
f 260 259 241
f 230 239 260
f 250 252 220
f 255 256 253
usemtl FFFFFF
f 1 3 4
f 6 8 5
f 4 7 9
f 10 11 12
f 7 11 9
f 12 14 15
f 14 17 18
f 15 18 19
f 13 14 11
f 21 23 24
f 25 17 16
f 20 28 16
f 6 13 7
f 29 20 13
f 28 25 16
f 3 8 4
f 5 22 21
f 4 33 1
f 23 35 24
f 22 34 23
f 2 34 3
f 27 31 28
f 30 27 20
f 1 37 10
f 9 37 38
f 9 32 4
f 37 39 40
f 32 41 42
f 37 41 38
f 32 39 33
f 42 44 39
f 40 44 45
f 42 46 43
f 40 46 41
f 1 48 2
f 49 6 5
f 47 50 49
f 10 52 51
f 52 50 51
f 12 54 52
f 54 56 57
f 15 55 54
f 54 53 52
f 21 59 60
f 56 25 57
f 57 62 58
f 53 6 50
f 58 29 53
f 61 25 31
f 48 49 60
f 60 5 21
f 63 47 1
f 35 59 24
f 60 65 48
f 65 2 48
f 62 31 36
f 62 30 58
f 66 1 10
f 51 66 10
f 64 51 47
f 66 69 63
f 64 71 67
f 71 66 67
f 69 64 63
f 72 70 69
f 68 72 69
f 70 75 71
f 75 68 71
f 1 2 3
f 6 7 8
f 4 8 7
f 10 9 11
f 7 13 11
f 12 11 14
f 14 16 17
f 15 14 18
f 13 20 14
f 21 22 23
f 25 26 17
f 16 14 20
f 20 27 28
f 6 29 13
f 29 30 20
f 28 31 25
f 3 22 8
f 5 8 22
f 4 32 33
f 23 34 35
f 22 3 34
f 2 35 34
f 27 36 31
f 30 36 27
f 1 33 37
f 9 10 37
f 9 38 32
f 37 33 39
f 32 38 41
f 37 40 41
f 32 42 39
f 42 43 44
f 40 39 44
f 42 41 46
f 40 45 46
f 1 47 48
f 49 50 6
f 47 51 50
f 10 12 52
f 52 53 50
f 12 15 54
f 54 55 56
f 15 19 55
f 54 58 53
f 21 24 59
f 56 26 25
f 58 54 57
f 57 61 62
f 53 29 6
f 58 30 29
f 61 57 25
f 48 47 49
f 60 49 5
f 63 64 47
f 35 65 59
f 60 59 65
f 65 35 2
f 62 61 31
f 62 36 30
f 66 63 1
f 51 67 66
f 64 67 51
f 66 68 69
f 64 70 71
f 71 68 66
f 69 70 64
f 72 73 70
f 68 74 72
f 70 73 75
f 75 74 68
usemtl 1A1A1A
f 261 262 263
f 264 265 263
f 266 267 263
f 262 268 263
f 269 261 263
f 265 269 263
f 267 264 263
f 268 266 263
f 270 262 261
f 264 273 265
f 274 267 266
f 271 268 262
f 277 261 269
f 273 269 265
f 275 264 267
f 276 266 268
f 278 279 280
f 281 279 282
f 283 279 284
f 280 279 285
f 286 279 278
f 282 279 286
f 284 279 281
f 285 279 283
f 278 287 288
f 282 290 281
f 284 292 283
f 285 287 280
f 278 294 286
f 286 289 282
f 281 291 284
f 283 293 285
f 270 271 262
f 264 272 273
f 274 275 267
f 271 276 268
f 277 270 261
f 273 277 269
f 275 272 264
f 276 274 266
f 278 280 287
f 282 289 290
f 284 291 292
f 285 293 287
f 278 288 294
f 286 294 289
f 281 290 291
f 283 292 293
usemtl F44336
f 76 78 79
f 80 82 83
f 85 87 84
f 88 90 91
f 92 94 95
f 96 98 99
f 100 102 103
f 104 106 107
f 109 86 108
f 110 112 113
f 114 116 117
f 119 121 118
f 122 124 125
f 105 82 106
f 93 90 94
f 79 124 123
f 99 102 101
f 103 126 127
f 77 129 125
f 131 124 130
f 133 94 132
f 89 135 95
f 137 106 136
f 81 139 107
f 141 105 140
f 138 108 139
f 85 105 104
f 84 83 141
f 106 91 93
f 135 115 114
f 136 93 92
f 137 91 82
f 90 123 94
f 132 123 122
f 129 111 110
f 133 79 90
f 78 101 124
f 127 119 118
f 130 101 100
f 131 99 78
f 87 80 84
f 86 104 108
f 82 107 106
f 104 139 108
f 140 84 141
f 138 80 109
f 112 76 133
f 113 122 110
f 112 132 113
f 78 125 124
f 122 129 110
f 128 76 111
f 120 96 131
f 121 100 118
f 120 130 121
f 98 103 102
f 100 127 118
f 126 96 119
f 116 88 137
f 117 92 114
f 116 136 117
f 90 95 94
f 92 135 114
f 134 88 115
f 142 144 145
f 146 148 149
f 150 146 149
f 152 149 148
f 152 147 153
f 151 147 146
f 142 153 151
f 145 152 153
f 144 150 152
f 142 150 143
f 154 156 157
f 158 160 161
f 162 158 163
f 164 159 162
f 161 164 165
f 163 161 165
f 154 165 155
f 155 164 156
f 156 162 157
f 162 154 157
f 76 77 78
f 80 81 82
f 85 86 87
f 88 89 90
f 92 93 94
f 96 97 98
f 100 101 102
f 104 105 106
f 109 87 86
f 110 111 112
f 114 115 116
f 119 120 121
f 122 123 124
f 105 83 82
f 93 91 90
f 79 78 124
f 99 98 102
f 103 97 126
f 77 128 129
f 131 78 124
f 133 90 94
f 89 134 135
f 137 82 106
f 81 138 139
f 141 83 105
f 138 109 108
f 85 140 105
f 84 80 83
f 106 82 91
f 135 134 115
f 136 106 93
f 137 88 91
f 90 79 123
f 132 94 123
f 129 128 111
f 133 76 79
f 78 99 101
f 127 126 119
f 130 124 101
f 131 96 99
f 87 109 80
f 86 85 104
f 82 81 107
f 104 107 139
f 140 85 84
f 138 81 80
f 112 111 76
f 113 132 122
f 112 133 132
f 78 77 125
f 122 125 129
f 128 77 76
f 120 119 96
f 121 130 100
f 120 131 130
f 98 97 103
f 100 103 127
f 126 97 96
f 116 115 88
f 117 136 92
f 116 137 136
f 90 89 95
f 92 95 135
f 134 89 88
f 142 143 144
f 146 147 148
f 150 151 146
f 152 150 149
f 152 148 147
f 151 153 147
f 142 145 153
f 145 144 152
f 144 143 150
f 142 151 150
f 154 155 156
f 158 159 160
f 162 159 158
f 164 160 159
f 161 160 164
f 163 158 161
f 154 163 165
f 155 165 164
f 156 164 162
f 162 163 154
usemtl 455A64
f 295 297 298
f 299 301 302
f 301 304 302
f 299 304 305
f 305 303 306
f 300 303 301
f 307 309 310
f 311 310 309
f 307 312 313
f 313 311 314
f 308 311 309
f 213 314 308
f 192 314 193
f 214 313 192
f 214 308 307
f 212 300 198
f 211 306 212
f 211 299 305
f 199 300 299
f 316 297 315
f 296 315 297
f 318 315 317
f 295 316 318
f 207 318 210
f 210 317 176
f 177 317 296
f 207 296 295
f 319 321 322
f 323 325 326
f 324 328 325
f 327 323 329
f 328 329 330
f 326 328 330
f 331 333 334
f 332 336 333
f 335 331 337
f 336 337 338
f 334 336 338
f 259 338 238
f 338 239 238
f 337 260 239
f 260 334 259
f 326 258 245
f 330 257 258
f 257 323 244
f 244 326 245
f 339 320 340
f 322 339 341
f 339 342 341
f 340 319 342
f 342 253 256
f 341 256 222
f 221 341 222
f 253 322 221
f 295 296 297
f 299 300 301
f 301 303 304
f 299 302 304
f 305 304 303
f 300 306 303
f 307 308 309
f 311 312 310
f 307 310 312
f 313 312 311
f 308 314 311
f 213 193 314
f 192 313 314
f 214 307 313
f 214 213 308
f 212 306 300
f 211 305 306
f 211 199 299
f 199 198 300
f 316 298 297
f 296 317 315
f 318 316 315
f 295 298 316
f 207 295 318
f 210 318 317
f 177 176 317
f 207 177 296
f 319 320 321
f 323 324 325
f 324 327 328
f 327 324 323
f 328 327 329
f 326 325 328
f 331 332 333
f 332 335 336
f 335 332 331
f 336 335 337
f 334 333 336
f 259 334 338
f 338 337 239
f 337 331 260
f 260 331 334
f 326 330 258
f 330 329 257
f 257 329 323
f 244 323 326
f 339 321 320
f 322 321 339
f 339 340 342
f 340 320 319
f 342 319 253
f 341 342 256
f 221 322 341
f 253 319 322
